# xmcd CD database file
#
# Track frame offsets:
#	150
#	19065
#	64902
#	94659
#	139450
#	198193
#	248504
#	255423
#	301208
#	316475
#
# Disc length: 4394 seconds
#
# Revision: 0
# Processed by: cddbd v1.5.2PL0 Copyright (c) Steve Scherf et al.
# Submitted via: CDex 1.70
#
DISCID=8111280a
DTITLE=Speak In Tones - Subaro
DYEAR=2004
DGENRE=Jazz
TTITLE0=Deusa Do Ebona
TTITLE1=Ayahuasca
TTITLE2=Douson Foly Take 2
TTITLE3=Mali Overdrive
TTITLE4=Oracao
TTITLE5=Samba Low Rider
TTITLE6=Jacare
TTITLE7=Speak In Tones
TTITLE8=Lamento
TTITLE9=Boca Do Rio
EXTD=YEAR: 2004
EXTT0=
EXTT1=
EXTT2=
EXTT3=
EXTT4=
EXTT5=
EXTT6=
EXTT7=
EXTT8=
EXTT9=
PLAYORDER=
